<svg width="19" height="13" viewBox="0 0 19 13" fill="none" xmlns="http://www.w3.org/2000/svg">
<path d="M1.41406 6.04036L0.706956 5.33326L-0.000151038 6.04036L0.706956 6.74747L1.41406 6.04036ZM17.4141 7.04036C17.9663 7.04036 18.4141 6.59265 18.4141 6.04036C18.4141 5.48808 17.9663 5.04036 17.4141 5.04036V7.04036ZM6.7474 0.707031L6.04029 -7.55191e-05L0.706956 5.33326L1.41406 6.04036L2.12117 6.74747L7.4545 1.41414L6.7474 0.707031ZM1.41406 6.04036L0.706956 6.74747L6.04029 12.0808L6.7474 11.3737L7.4545 10.6666L2.12117 5.33326L1.41406 6.04036ZM1.41406 6.04036V7.04036H17.4141V6.04036V5.04036H1.41406V6.04036Z" fill="#33363F"/>
</svg>
