<svg width="32" height="34" viewBox="0 0 32 34" fill="none" xmlns="http://www.w3.org/2000/svg">
<path d="M10.666 17L10.666 11C10.666 8.05448 13.0538 5.66667 15.9993 5.66667C18.9449 5.66667 21.3327 8.05448 21.3327 11L21.3327 17" stroke="#222222" stroke-width="2" stroke-linecap="round"/>
<path d="M5.04414 16.4372C5.18135 14.6878 5.24995 13.8131 5.82481 13.2815C6.39967 12.75 7.27708 12.75 9.03189 12.75H22.9681C24.7229 12.75 25.6003 12.75 26.1752 13.2815C26.75 13.8131 26.8187 14.6878 26.9559 16.4372L27.8309 27.5936C27.91 28.6031 27.9496 29.1078 27.6527 29.4289C27.3558 29.75 26.8496 29.75 25.837 29.75H6.16301C5.15045 29.75 4.64417 29.75 4.34727 29.4289C4.05037 29.1078 4.08996 28.6031 4.16913 27.5936L5.04414 16.4372Z" stroke="#222222" stroke-width="2"/>
</svg>
