<svg width="41" height="43" viewBox="0 0 41 43" fill="none" xmlns="http://www.w3.org/2000/svg">
<path d="M1.56216 27.0392C1.13686 29.8273 3.03831 31.7625 5.36643 32.7269C14.2919 36.4244 26.7127 36.4244 35.6382 32.7269C37.9663 31.7625 39.8678 29.8273 39.4425 27.0392C39.1811 25.3258 37.8886 23.8991 36.9311 22.5058C35.6769 20.6585 35.5523 18.6437 35.5521 16.5C35.5521 8.21573 28.8141 1.5 20.5023 1.5C12.1906 1.5 5.45257 8.21573 5.45257 16.5C5.45239 18.6437 5.32777 20.6585 4.07354 22.5058C3.11599 23.899 1.82354 25.3258 1.56216 27.0392Z" stroke="#141B34" stroke-width="3" stroke-linecap="round" stroke-linejoin="round"/>
<path d="M12.5023 35.5C13.4193 38.9505 16.6534 41.5 20.5023 41.5C24.3513 41.5 27.5853 38.9505 28.5023 35.5" stroke="#141B34" stroke-width="3" stroke-linecap="round" stroke-linejoin="round"/>
</svg>
