<svg width="34" height="34" viewBox="0 0 34 34" fill="none" xmlns="http://www.w3.org/2000/svg">
<path d="M7.08398 18.076C7.08398 16.1525 7.08398 15.1908 7.4728 14.3454C7.86162 13.5 8.59184 12.8741 10.0523 11.6223L11.4689 10.4081C14.1086 8.14546 15.4285 7.01416 17.0007 7.01416C18.5728 7.01416 19.8927 8.14546 22.5324 10.4081L23.949 11.6223C25.4095 12.8741 26.1397 13.5 26.5285 14.3454C26.9173 15.1908 26.9173 16.1525 26.9173 18.076V24.0832C26.9173 26.7545 26.9173 28.0902 26.0875 28.9201C25.2576 29.7499 23.9219 29.7499 21.2507 29.7499H12.7507C10.0794 29.7499 8.74371 29.7499 7.91385 28.9201C7.08398 28.0902 7.08398 26.7545 7.08398 24.0832V18.076Z" stroke="#33363F" stroke-width="2"/>
<path d="M20.5423 29.75V22.25C20.5423 21.6977 20.0946 21.25 19.5423 21.25H14.459C13.9067 21.25 13.459 21.6977 13.459 22.25V29.75" stroke="#33363F" stroke-width="2" stroke-linecap="round" stroke-linejoin="round"/>
</svg>
