<svg xmlns="http://www.w3.org/2000/svg" width="1em" height="1em" fill="none" viewBox="0 0 88 68" data-testid="trust-banner-secure-payments" class=" " stroke="none" style="height: 72px; width: 96px;"><g clip-path="url(#icon-secure-payment-v2_svg__a)"><mask id="icon-secure-payment-v2_svg__b" fill="#fff"><path d="M60.953 11.107a5.573 5.573 0 0 0-.236.762.479.479 0 0 1-.11.345 4.56 4.56 0 0 0-.208.67c-.015.14-.016.282-.125.392a5.093 5.093 0 0 0-.225.724.577.577 0 0 1-.12.38 4.996 4.996 0 0 0-.236.755.5.5 0 0 1-.111.35c-.101.261-.185.527-.252.797.04.124-.048.21-.099.305-.085.22-.154.446-.207.676-.018.135-.01.28-.122.388a4.998 4.998 0 0 0-.236.747.527.527 0 0 1-.112.359 5.116 5.116 0 0 0-.236.756.515.515 0 0 1-.112.347c-.1.26-.183.527-.248.798.034.123-.052.209-.102.305a5.123 5.123 0 0 0-.207.68.72.72 0 0 1-.151.424c-.183.411-.41.802-.68 1.167-.127.268-.359.452-.573.648-.089.08-.186.152-.28.228a5.084 5.084 0 0 1-1.223.654c-.11.045-.222.076-.335.117-.244.059-.486.122-.736.158-.109.017-.22 0-.327.035a3.588 3.588 0 0 1-.487.016c-.07-.008-.14.005-.212 0-.19 0-.38.004-.571 0-.07-.01-.142.004-.214 0-.19 0-.382.005-.572 0-.072-.01-.144.004-.214 0-.192 0-.382.005-.573 0-.072-.01-.144.004-.215 0-.19 0-.381.005-.573 0-.07-.01-.142.004-.214 0-.191 0-.382.005-.573 0-.07-.01-.142.004-.214 0-.19 0-.382.005-.572 0-.072-.01-.143.004-.215 0-.19 0-.382.005-.572 0-.072-.01-.144.004-.215 0-.19 0-.382.005-.572 0-.072-.01-.144.004-.215 0-.19 0-.381.005-.572 0-.072-.01-.144.004-.215 0-.19 0-.381.005-.573 0-.07-.01-.142.004-.214 0-.191 0-.382.005-.573 0-.07-.01-.142.004-.214 0-.19 0-.382.005-.572 0-.072-.01-.143.004-.215 0-.19 0-.382.005-.572 0-.072-.01-.144.004-.215 0-.19 0-.381.005-.572 0-.072-.01-.144.004-.215 0-.19 0-.381.005-.572 0-.071-.01-.143.004-.215 0-.19 0-.379.004-.569 0-.068-.01-.137 0-.206 0H38.66c-.217 0-.226.016-.172.217.08.319.178.633.294.94.022.072.048.142.08.21.059.106.124.207.196.305.035.058.076.111.122.16.073.076.15.148.227.22.051.055.106.106.165.153.09.061.174.132.27.188.065.04.134.076.206.105.097.05.202.076.302.12.082.033.166.058.252.077.171.046.349.045.522.076.131.013.262.018.394.016 2.996 0 5.991.005 8.986 0 .968 0 1.934.041 2.9.037.566 0 1.132-.01 1.698.004.114 0 .231-.076.342.01l.34.126a.22.22 0 0 1 .107.052.21.21 0 0 1 .062.1l.157.334c.079.113 0 .229.006.342-.102.452-.411.661-.872.685a.372.372 0 0 1-.206.054c-.19 0-.38.004-.571 0-.071-.01-.143.004-.214 0h-.572c-.071-.01-.143 0-.215 0h-.572c-.072-.01-.143 0-.215 0-.191 0-.382.004-.574 0-.071-.01-.15.004-.206-.056h-.59c-.066.034-.132.06-.197 0h-.59a.374.374 0 0 1-.206.053c-.19 0-.38.004-.571 0-.071-.009-.143.005-.213 0h-.573c-.071-.01-.143 0-.215 0h-.572c-.072-.01-.143 0-.215 0h-.572c-.072-.01-.143 0-.215 0h-.572c-.072-.01-.143 0-.214 0h-.573c-.072-.01-.144 0-.214 0h-.573c-.071-.01-.143 0-.215 0h-.572c-.071-.01-.143 0-.215 0h-.572c-.072-.01-.143 0-.215 0h-.572c-.072-.01-.143 0-.215 0-.191 0-.382.005-.574 0-.07-.01-.15.005-.206-.055l-.59-.005c-.113.076-.208-.035-.314-.03l-.347-.046c-.065-.025-.15.04-.201-.044l-.387-.109c-.067-.029-.158.01-.206-.076l-.349-.152c-.074-.026-.163-.024-.203-.108l-.32-.192a.24.24 0 0 1-.152-.108l-.264-.203a.256.256 0 0 1-.168-.152l-.23-.229a.18.18 0 0 1-.085-.054.171.171 0 0 1-.042-.09l-.236-.305c-.078-.029-.078-.105-.11-.164l-.168-.294c-.09-.043-.089-.13-.106-.207l-.13-.326c-.069-.05-.056-.126-.07-.194a1.699 1.699 0 0 0-.122-.415c-.085-.065-.04-.167-.071-.247a1.113 1.113 0 0 0-.09-.324c-.095-.057-.038-.158-.072-.233a1.397 1.397 0 0 0-.108-.38c-.07-.035-.053-.094-.045-.153a1.984 1.984 0 0 0-.129-.457c-.1-.057-.026-.164-.071-.237a1.266 1.266 0 0 0-.09-.334c-.07-.053-.058-.13-.065-.203-.02-.14-.06-.278-.118-.408-.058-.038-.05-.096-.044-.153a2.31 2.31 0 0 0-.126-.457c-.085-.051-.037-.141-.066-.209a1.115 1.115 0 0 0-.09-.324.313.313 0 0 1-.071-.233 1.56 1.56 0 0 0-.12-.415.132.132 0 0 1-.047-.069.128.128 0 0 1 .005-.083 1.892 1.892 0 0 0-.12-.419c-.095-.058-.04-.16-.072-.236a1.278 1.278 0 0 0-.09-.335c-.028-.062-.091-.114-.061-.193a2.025 2.025 0 0 0-.13-.457c-.083-.063-.033-.164-.071-.24a1.217 1.217 0 0 0-.09-.331c-.072-.054-.059-.133-.065-.206a1.438 1.438 0 0 0-.117-.406c-.062-.037-.05-.094-.044-.153a2.148 2.148 0 0 0-.127-.457c-.099-.055-.022-.162-.072-.228a.904.904 0 0 0-.083-.305.302.302 0 0 1-.072-.234 1.546 1.546 0 0 0-.12-.413.129.129 0 0 1-.048-.069.125.125 0 0 1 .006-.083 1.761 1.761 0 0 0-.12-.419c-.078-.064-.043-.16-.071-.239a1.23 1.23 0 0 0-.09-.333c-.032-.06-.095-.112-.06-.193a2.082 2.082 0 0 0-.131-.453c-.085-.064-.037-.165-.072-.243a1.152 1.152 0 0 0-.09-.328c-.093-.057-.037-.157-.071-.228a1.348 1.348 0 0 0-.11-.38c-.066-.036-.053-.094-.045-.153a2.085 2.085 0 0 0-.127-.457c-.1-.056-.025-.163-.072-.234a.844.844 0 0 0-.084-.299.365.365 0 0 1-.07-.238c-.021-.142-.061-.28-.12-.41a.123.123 0 0 1-.05-.07.119.119 0 0 1 .007-.083 2.361 2.361 0 0 0-.126-.457c-.083-.05-.035-.14-.065-.206a1.141 1.141 0 0 0-.09-.328.322.322 0 0 1-.072-.228 1.61 1.61 0 0 0-.12-.416c-.086-.066-.04-.168-.072-.248a1.075 1.075 0 0 0-.09-.323c-.094-.058-.038-.158-.071-.234a.847.847 0 0 0-.084-.299c-.015-.076-.098-.14-.069-.228a2.036 2.036 0 0 0-.129-.457c-.1-.058-.027-.165-.07-.238a1.227 1.227 0 0 0-.091-.333c-.071-.054-.057-.132-.065-.204a1.234 1.234 0 0 0-.123-.406c-.064-.037-.061-.102-.08-.161a.636.636 0 0 0-.231-.298.175.175 0 0 1-.078-.038.167.167 0 0 1-.049-.07 1.083 1.083 0 0 0-.342-.199c-.093 0-.146-.06-.207-.113a.923.923 0 0 0-.273-.152c-.073-.027-.158-.028-.2-.11a1.148 1.148 0 0 0-.296-.162c-.067-.022-.141-.028-.177-.1l-.388-.21a.133.133 0 0 1-.07-.016.128.128 0 0 1-.052-.05 1.41 1.41 0 0 0-.35-.19c-.056-.024-.138 0-.158-.09l-.311-.148c-.067-.032-.158-.028-.195-.108a1.229 1.229 0 0 0-.303-.163.277.277 0 0 1-.206-.115l-.236-.223c-.113-.043-.079-.153-.116-.229l-.036-.284a.622.622 0 0 1 .056-.31.643.643 0 0 1 .201-.247c.124-.127.252-.248.456-.219.142-.004.283.007.421.034.06.04.167-.016.192.092l.324.174c.068.03.157.03.194.11.093.067.196.122.305.161a.286.286 0 0 1 .202.114c.108.08.227.145.353.195a.11.11 0 0 1 .073.011.104.104 0 0 1 .047.055c.109.079.228.144.354.193.055.022.127.014.157.084.105.078.22.141.343.188a.231.231 0 0 1 .173.1l.308.163c.079.023.164.026.203.111.083.065.177.116.277.152.063.042.166.022.194.117l.309.228c.03.006.057.02.08.04.021.02.037.046.044.074l.242.262a.228.228 0 0 1 .115.149c.066.103.13.206.195.31.085.057.08.152.115.234l.12.337c.098.07.028.185.08.268.01.105.038.208.084.305.095.058.04.159.071.235.015.115.046.228.09.336.03.062.092.113.063.192.025.157.068.31.13.457.1.058.027.165.07.238.015.115.045.227.09.333.072.054.058.133.065.205.02.14.06.277.118.407.06.038.05.094.044.152.025.156.068.31.126.457.099.056.022.161.072.228.01.106.039.209.084.305a.31.31 0 0 1 .072.234c.02.142.06.281.118.413a.13.13 0 0 1 .049.07.126.126 0 0 1-.005.082c.023.144.062.285.119.42.096.059.042.16.071.238.015.114.046.226.09.333.047.06.082.128.106.199.035.147.09.288.124.435.018.083.042.164.072.243.024.11.065.216.094.325.02.082.037.164.065.243.042.124.068.253.114.376.015.054.025.11.044.162.05.144.08.292.125.436.027.08.042.163.07.243.033.098.056.198.088.296.026.08.045.162.07.242.03.138.078.27.116.406.017.054.035.108.05.163.036.146.09.289.122.437.017.072.039.144.065.214.024.11.065.215.093.323.02.082.04.164.067.244.042.135.078.273.122.407.018.082.042.163.072.242.028.109.053.218.088.326.028.08.043.163.071.242.042.124.068.252.114.376.016.054.026.11.043.163.034.148.087.29.126.435.028.081.044.164.07.246.022.11.064.215.093.324.016.072.038.143.064.213.032.137.083.27.116.406.015.054.024.11.045.162.044.145.085.29.128.434.017.073.039.145.065.215.029.108.054.217.088.324.026.08.044.163.071.242.044.136.079.273.123.408.013.055.028.112.044.167.05.14.056.295.162.414a.761.761 0 0 0 .293.022h5.882c.694 0 1.39.037 2.082.022 2.248-.049 4.495 0 6.744-.028.097.009.196.005.292-.013.133-.023.268-.027.4-.056.129-.017.255-.048.377-.092.909-.325 1.545-.914 1.871-1.805.044-.114.079-.229.118-.347.078-.247.157-.497.231-.747.048-.115.086-.234.113-.355.086-.248.152-.502.236-.75.037-.12.072-.24.112-.36.067-.223.14-.444.204-.668.05-.123.091-.25.121-.38.088-.238.146-.483.236-.72l.12-.388c.079-.25.151-.504.236-.753.05-.116.073-.24.112-.36.079-.26.172-.515.244-.777a3 3 0 0 0 .105-.33c.078-.22.134-.445.21-.666.053-.126.078-.259.119-.388.078-.25.166-.496.236-.749.045-.117.083-.236.112-.358.088-.247.158-.5.237-.75a.943.943 0 0 1 .151-.344c.044-.132.09-.263.132-.395.157-.495.356-.655.884-.705.09.044.213-.042.287.067l.315.196c.087.017.094.091.12.152l.086.229c-.005.115.083.243-.016.368Z"></path></mask><path fill="#4E5664" stroke="#fff" stroke-width="0.314" d="M60.953 11.107a5.573 5.573 0 0 0-.236.762.479.479 0 0 1-.11.345 4.56 4.56 0 0 0-.208.67c-.015.14-.016.282-.125.392a5.093 5.093 0 0 0-.225.724.577.577 0 0 1-.12.38 4.996 4.996 0 0 0-.236.755.5.5 0 0 1-.111.35c-.101.261-.185.527-.252.797.04.124-.048.21-.099.305-.085.22-.154.446-.207.676-.018.135-.01.28-.122.388a4.998 4.998 0 0 0-.236.747.527.527 0 0 1-.112.359 5.116 5.116 0 0 0-.236.756.515.515 0 0 1-.112.347c-.1.26-.183.527-.248.798.034.123-.052.209-.102.305a5.123 5.123 0 0 0-.207.68.72.72 0 0 1-.151.424c-.183.411-.41.802-.68 1.167-.127.268-.359.452-.573.648-.089.08-.186.152-.28.228a5.084 5.084 0 0 1-1.223.654c-.11.045-.222.076-.335.117-.244.059-.486.122-.736.158-.109.017-.22 0-.327.035a3.588 3.588 0 0 1-.487.016c-.07-.008-.14.005-.212 0-.19 0-.38.004-.571 0-.07-.01-.142.004-.214 0-.19 0-.382.005-.572 0-.072-.01-.144.004-.214 0-.192 0-.382.005-.573 0-.072-.01-.144.004-.215 0-.19 0-.381.005-.573 0-.07-.01-.142.004-.214 0-.191 0-.382.005-.573 0-.07-.01-.142.004-.214 0-.19 0-.382.005-.572 0-.072-.01-.143.004-.215 0-.19 0-.382.005-.572 0-.072-.01-.144.004-.215 0-.19 0-.382.005-.572 0-.072-.01-.144.004-.215 0-.19 0-.381.005-.572 0-.072-.01-.144.004-.215 0-.19 0-.381.005-.573 0-.07-.01-.142.004-.214 0-.191 0-.382.005-.573 0-.07-.01-.142.004-.214 0-.19 0-.382.005-.572 0-.072-.01-.143.004-.215 0-.19 0-.382.005-.572 0-.072-.01-.144.004-.215 0-.19 0-.381.005-.572 0-.072-.01-.144.004-.215 0-.19 0-.381.005-.572 0-.071-.01-.143.004-.215 0-.19 0-.379.004-.569 0-.068-.01-.137 0-.206 0H38.66c-.217 0-.226.016-.172.217.08.319.178.633.294.94.022.072.048.142.08.21.059.106.124.207.196.305.035.058.076.111.122.16.073.076.15.148.227.22.051.055.106.106.165.153.09.061.174.132.27.188.065.04.134.076.206.105.097.05.202.076.302.12.082.033.166.058.252.077.171.046.349.045.522.076.131.013.262.018.394.016 2.996 0 5.991.005 8.986 0 .968 0 1.934.041 2.9.037.566 0 1.132-.01 1.698.004.114 0 .231-.076.342.01l.34.126a.22.22 0 0 1 .107.052.21.21 0 0 1 .062.1l.157.334c.079.113 0 .229.006.342-.102.452-.411.661-.872.685a.372.372 0 0 1-.206.054c-.19 0-.38.004-.571 0-.071-.01-.143.004-.214 0h-.572c-.071-.01-.143 0-.215 0h-.572c-.072-.01-.143 0-.215 0-.191 0-.382.004-.574 0-.071-.01-.15.004-.206-.056h-.59c-.066.034-.132.06-.197 0h-.59a.374.374 0 0 1-.206.053c-.19 0-.38.004-.571 0-.071-.009-.143.005-.213 0h-.573c-.071-.01-.143 0-.215 0h-.572c-.072-.01-.143 0-.215 0h-.572c-.072-.01-.143 0-.215 0h-.572c-.072-.01-.143 0-.214 0h-.573c-.072-.01-.144 0-.214 0h-.573c-.071-.01-.143 0-.215 0h-.572c-.071-.01-.143 0-.215 0h-.572c-.072-.01-.143 0-.215 0h-.572c-.072-.01-.143 0-.215 0-.191 0-.382.005-.574 0-.07-.01-.15.005-.206-.055l-.59-.005c-.113.076-.208-.035-.314-.03l-.347-.046c-.065-.025-.15.04-.201-.044l-.387-.109c-.067-.029-.158.01-.206-.076l-.349-.152c-.074-.026-.163-.024-.203-.108l-.32-.192a.24.24 0 0 1-.152-.108l-.264-.203a.256.256 0 0 1-.168-.152l-.23-.229a.18.18 0 0 1-.085-.054.171.171 0 0 1-.042-.09l-.236-.305c-.078-.029-.078-.105-.11-.164l-.168-.294c-.09-.043-.089-.13-.106-.207l-.13-.326c-.069-.05-.056-.126-.07-.194a1.699 1.699 0 0 0-.122-.415c-.085-.065-.04-.167-.071-.247a1.113 1.113 0 0 0-.09-.324c-.095-.057-.038-.158-.072-.233a1.397 1.397 0 0 0-.108-.38c-.07-.035-.053-.094-.045-.153a1.984 1.984 0 0 0-.129-.457c-.1-.057-.026-.164-.071-.237a1.266 1.266 0 0 0-.09-.334c-.07-.053-.058-.13-.065-.203-.02-.14-.06-.278-.118-.408-.058-.038-.05-.096-.044-.153a2.31 2.31 0 0 0-.126-.457c-.085-.051-.037-.141-.066-.209a1.115 1.115 0 0 0-.09-.324.313.313 0 0 1-.071-.233 1.56 1.56 0 0 0-.12-.415.132.132 0 0 1-.047-.069.128.128 0 0 1 .005-.083 1.892 1.892 0 0 0-.12-.419c-.095-.058-.04-.16-.072-.236a1.278 1.278 0 0 0-.09-.335c-.028-.062-.091-.114-.061-.193a2.025 2.025 0 0 0-.13-.457c-.083-.063-.033-.164-.071-.24a1.217 1.217 0 0 0-.09-.331c-.072-.054-.059-.133-.065-.206a1.438 1.438 0 0 0-.117-.406c-.062-.037-.05-.094-.044-.153a2.148 2.148 0 0 0-.127-.457c-.099-.055-.022-.162-.072-.228a.904.904 0 0 0-.083-.305.302.302 0 0 1-.072-.234 1.546 1.546 0 0 0-.12-.413.129.129 0 0 1-.048-.069.125.125 0 0 1 .006-.083 1.761 1.761 0 0 0-.12-.419c-.078-.064-.043-.16-.071-.239a1.23 1.23 0 0 0-.09-.333c-.032-.06-.095-.112-.06-.193a2.082 2.082 0 0 0-.131-.453c-.085-.064-.037-.165-.072-.243a1.152 1.152 0 0 0-.09-.328c-.093-.057-.037-.157-.071-.228a1.348 1.348 0 0 0-.11-.38c-.066-.036-.053-.094-.045-.153a2.085 2.085 0 0 0-.127-.457c-.1-.056-.025-.163-.072-.234a.844.844 0 0 0-.084-.299.365.365 0 0 1-.07-.238c-.021-.142-.061-.28-.12-.41a.123.123 0 0 1-.05-.07.119.119 0 0 1 .007-.083 2.361 2.361 0 0 0-.126-.457c-.083-.05-.035-.14-.065-.206a1.141 1.141 0 0 0-.09-.328.322.322 0 0 1-.072-.228 1.61 1.61 0 0 0-.12-.416c-.086-.066-.04-.168-.072-.248a1.075 1.075 0 0 0-.09-.323c-.094-.058-.038-.158-.071-.234a.847.847 0 0 0-.084-.299c-.015-.076-.098-.14-.069-.228a2.036 2.036 0 0 0-.129-.457c-.1-.058-.027-.165-.07-.238a1.227 1.227 0 0 0-.091-.333c-.071-.054-.057-.132-.065-.204a1.234 1.234 0 0 0-.123-.406c-.064-.037-.061-.102-.08-.161a.636.636 0 0 0-.231-.298.175.175 0 0 1-.078-.038.167.167 0 0 1-.049-.07 1.083 1.083 0 0 0-.342-.199c-.093 0-.146-.06-.207-.113a.923.923 0 0 0-.273-.152c-.073-.027-.158-.028-.2-.11a1.148 1.148 0 0 0-.296-.162c-.067-.022-.141-.028-.177-.1l-.388-.21a.133.133 0 0 1-.07-.016.128.128 0 0 1-.052-.05 1.41 1.41 0 0 0-.35-.19c-.056-.024-.138 0-.158-.09l-.311-.148c-.067-.032-.158-.028-.195-.108a1.229 1.229 0 0 0-.303-.163.277.277 0 0 1-.206-.115l-.236-.223c-.113-.043-.079-.153-.116-.229l-.036-.284a.622.622 0 0 1 .056-.31.643.643 0 0 1 .201-.247c.124-.127.252-.248.456-.219.142-.004.283.007.421.034.06.04.167-.016.192.092l.324.174c.068.03.157.03.194.11.093.067.196.122.305.161a.286.286 0 0 1 .202.114c.108.08.227.145.353.195a.11.11 0 0 1 .073.011.104.104 0 0 1 .047.055c.109.079.228.144.354.193.055.022.127.014.157.084.105.078.22.141.343.188a.231.231 0 0 1 .173.1l.308.163c.079.023.164.026.203.111.083.065.177.116.277.152.063.042.166.022.194.117l.309.228c.03.006.057.02.08.04.021.02.037.046.044.074l.242.262a.228.228 0 0 1 .115.149c.066.103.13.206.195.31.085.057.08.152.115.234l.12.337c.098.07.028.185.08.268.01.105.038.208.084.305.095.058.04.159.071.235.015.115.046.228.09.336.03.062.092.113.063.192.025.157.068.31.13.457.1.058.027.165.07.238.015.115.045.227.09.333.072.054.058.133.065.205.02.14.06.277.118.407.06.038.05.094.044.152.025.156.068.31.126.457.099.056.022.161.072.228.01.106.039.209.084.305a.31.31 0 0 1 .072.234c.02.142.06.281.118.413a.13.13 0 0 1 .049.07.126.126 0 0 1-.005.082c.023.144.062.285.119.42.096.059.042.16.071.238.015.114.046.226.09.333.047.06.082.128.106.199.035.147.09.288.124.435.018.083.042.164.072.243.024.11.065.216.094.325.02.082.037.164.065.243.042.124.068.253.114.376.015.054.025.11.044.162.05.144.08.292.125.436.027.08.042.163.07.243.033.098.056.198.088.296.026.08.045.162.07.242.03.138.078.27.116.406.017.054.035.108.05.163.036.146.09.289.122.437.017.072.039.144.065.214.024.11.065.215.093.323.02.082.04.164.067.244.042.135.078.273.122.407.018.082.042.163.072.242.028.109.053.218.088.326.028.08.043.163.071.242.042.124.068.252.114.376.016.054.026.11.043.163.034.148.087.29.126.435.028.081.044.164.07.246.022.11.064.215.093.324.016.072.038.143.064.213.032.137.083.27.116.406.015.054.024.11.045.162.044.145.085.29.128.434.017.073.039.145.065.215.029.108.054.217.088.324.026.08.044.163.071.242.044.136.079.273.123.408.013.055.028.112.044.167.05.14.056.295.162.414a.761.761 0 0 0 .293.022h5.882c.694 0 1.39.037 2.082.022 2.248-.049 4.495 0 6.744-.028.097.009.196.005.292-.013.133-.023.268-.027.4-.056.129-.017.255-.048.377-.092.909-.325 1.545-.914 1.871-1.805.044-.114.079-.229.118-.347.078-.247.157-.497.231-.747.048-.115.086-.234.113-.355.086-.248.152-.502.236-.75.037-.12.072-.24.112-.36.067-.223.14-.444.204-.668.05-.123.091-.25.121-.38.088-.238.146-.483.236-.72l.12-.388c.079-.25.151-.504.236-.753.05-.116.073-.24.112-.36.079-.26.172-.515.244-.777a3 3 0 0 0 .105-.33c.078-.22.134-.445.21-.666.053-.126.078-.259.119-.388.078-.25.166-.496.236-.749.045-.117.083-.236.112-.358.088-.247.158-.5.237-.75a.943.943 0 0 1 .151-.344c.044-.132.09-.263.132-.395.157-.495.356-.655.884-.705.09.044.213-.042.287.067l.315.196c.087.017.094.091.12.152l.086.229c-.005.115.083.243-.016.368Z" mask="url(#icon-secure-payment-v2_svg__b)"></path><path fill="#FFD232" d="m48.52 4.141.473.115c.058-.004.117-.014.158.045.11.053.228.09.35.11.1.019.205.03.282.108l.303.122c.093.008.18.047.248.11.093.066.197.118.307.153.09 0 .142.065.204.112.08.064.17.115.266.152.06.03.138.033.168.107l.281.191a.32.32 0 0 1 .191.143l.267.205a.292.292 0 0 1 .167.143l.265.239c.031.004.06.018.082.04.023.02.037.049.041.079l.246.255c.07.034.123.092.148.163l.212.258c.072.04.125.106.147.184l.198.272c.079.03.079.105.11.164l.158.256c.05.06.116.11.117.197.036.107.089.207.157.298a.38.38 0 0 1 .116.24c.042.098.083.195.126.292a.448.448 0 0 1 .11.276c.022.117.06.23.117.336.059.038.05.094.044.152l.12.457a.15.15 0 0 1 .034.152c.01.167.036.332.079.494.092.084-.02.192.035.28 0 .072.007.144.01.216.051.181.01.369.031.553v-.005a.97.97 0 0 0 0 .413.286.286 0 0 1-.032.218c-.026.216-.054.431-.078.647a.227.227 0 0 1-.042.229l-.157.636a.67.67 0 0 1-.146.429l-.368.861c-.026.204-.151.356-.284.504a8.147 8.147 0 0 1-2.067 2.254c-.27.197-.55.374-.833.56a1.983 1.983 0 0 1-.506.309 8.623 8.623 0 0 1-.945.38 7.597 7.597 0 0 0-.368.119c-.236.052-.46.118-.693.163-.126.013-.25.036-.373.067-.177.013-.35.054-.528.055a.909.909 0 0 0-.264.025c-.185.015-.371.02-.557.015-.07-.009-.139 0-.207-.007-.173-.043-.354-.024-.53-.049a.747.747 0 0 0-.187-.026c-.167-.011-.329-.06-.494-.076-.061-.009-.12-.025-.18-.038-.124-.035-.254-.045-.376-.089-.08-.03-.17-.042-.252-.07-.125-.045-.251-.083-.378-.123-.07-.026-.141-.048-.21-.076-.128-.048-.25-.112-.38-.153-.059-.025-.115-.052-.173-.076-.125-.068-.256-.123-.383-.189a1.43 1.43 0 0 0-.133-.081 2.61 2.61 0 0 1-.315-.184c-.064-.044-.136-.076-.2-.117-.094-.06-.18-.13-.272-.192-.051-.046-.111-.08-.166-.12a2.732 2.732 0 0 1-.271-.218 1.791 1.791 0 0 1-.166-.127l-.265-.257a3.36 3.36 0 0 0-.131-.127c-.087-.086-.177-.17-.265-.256a1.85 1.85 0 0 1-.132-.16 2.777 2.777 0 0 1-.225-.262c-.042-.053-.079-.11-.124-.16-.066-.087-.123-.18-.196-.264-.048-.06-.078-.131-.124-.192-.07-.098-.133-.2-.19-.305-.024-.046-.055-.087-.083-.13-.067-.122-.128-.247-.195-.37-.027-.055-.056-.11-.079-.166-.043-.127-.113-.243-.157-.369-.03-.066-.054-.135-.08-.202-.038-.124-.087-.245-.123-.37a2.206 2.206 0 0 0-.073-.242c-.029-.12-.066-.24-.091-.363a2.174 2.174 0 0 0-.038-.172 9.722 9.722 0 0 1-.085-.477.689.689 0 0 0-.027-.211 1.05 1.05 0 0 1-.016-.223 1.625 1.625 0 0 0-.04-.453 1.869 1.869 0 0 1 .014-.368c.047-.138.018-.281.025-.422.007-.141.04-.299.055-.449.035-.14.051-.284.075-.427.059-.213.089-.433.161-.643.043-.149.094-.295.154-.438.105-.295.228-.585.366-.867.123-.173.196-.377.348-.533a9.145 9.145 0 0 1 1.446-1.718c.431-.375.893-.717 1.382-1.02.166-.149.37-.255.59-.308l.865-.346c.099-.056.189-.133.315-.105l.787-.194a.265.265 0 0 1 .236-.038l.669-.076a.264.264 0 0 1 .178-.042c.191.04.388.046.581.017.14-.01.282-.003.421.02l.224.01c.103.06.227-.056.327.036l.51.08a.156.156 0 0 1 .157.025Z"></path><path fill="#4E5664" stroke="#fff" stroke-width="0.157" d="m52.011 36.91-.453-.033-.018-.002-.018.008a.063.063 0 0 1-.07-.014l-.016-.016-.021-.005-.472-.121-.017-.005-.015.003a.085.085 0 0 1-.046-.006.078.078 0 0 1-.034-.028l-.013-.017-.018-.009-.348-.165-.014-.006h-.016l-.03-.007a.115.115 0 0 1-.068-.057l-.009-.016-.014-.01-.275-.199-.007-.005-.008-.003-.069-.045a.25.25 0 0 1-.05-.063l-.007-.009-.006-.007-.237-.24-.012-.013-.017-.007-.026-.013a.101.101 0 0 1-.043-.072l-.002-.02-.011-.016-.201-.304-.012-.02-.021-.009-.025-.017a.087.087 0 0 1-.014-.027.356.356 0 0 1-.013-.046l-.015-.062-.003-.007-.13-.33-.008-.021-.017-.014-.018-.02a.091.091 0 0 1-.01-.027c-.002-.012-.002-.026-.003-.043l-.004-.056-.001-.007-.08-.446-.003-.024-.019-.018-.014-.02a.031.031 0 0 1-.002-.013c0-.014.007-.034.023-.065l.009-.017v-.019c0-.134.004-.263.007-.4a.46.46 0 0 0 .012-.118l-.002-.059a1.548 1.548 0 0 1-.002-.053c-.002-.066.007-.11.048-.15l.014-.014.006-.019c.098-.3.227-.59.386-.865h.002l.004-.01c.118-.293.351-.5.605-.712.054-.042.11-.083.167-.123l.173-.113.005-.004c.131-.095.275-.163.425-.22l.472-.154a1.06 1.06 0 0 1 .186-.035c.063-.008.134-.017.204-.034a.8.8 0 0 1 .09-.011l.09-.002h.435c.17.029.332.05.494.086.036.01.071.023.108.035.035.012.073.024.113.035v.001c.052.016.104.035.154.055l.15.065.005.003a.45.45 0 0 1 .168.115l.008.01.01.005.349.214.021.014.026-.002h.005l.005.003.018.026.032.04.005.005.267.238.018.017.025.003a.06.06 0 0 1 .036.018c.009.01.013.022.013.034v.027l.017.02.228.293.018.023.028.005.006.003.005.008.01.035.02.055v.002l.181.35.014.027.027.01c.015.006.017.011.017.011a.064.064 0 0 1 .005.026.708.708 0 0 1 .002.067.215.215 0 0 0 .02.075c.03.11.059.227.089.335l.006.021.014.015a.083.083 0 0 1 .015.097l-.012.02.002.023.033.533.001.024.015.018c.009.012.01.02.01.025a.1.1 0 0 1-.008.035l-.012.03a.92.92 0 0 0-.014.033.287.287 0 0 0-.02.079l-.133.592-.002.008v.009c0 .144-.072.257-.174.387l.062.047-.063-.047-.005.008a3.35 3.35 0 0 1-1.308 1.265l-.008.005-.007.006a.676.676 0 0 1-.306.156l-.117.015-.012.003-.588.12-.013.003-.01.006a.241.241 0 0 1-.141.023c-.048-.003-.12-.012-.188-.006ZM41.678 30.962c.123.006.25 0 .367 0 .177.028.333.037.494.077v.001c.055.016.111.034.17.053v-.001l.42.151c.045.02.089.042.137.066.104.058.205.12.301.19.056.042.115.079.17.113.046.035.091.072.135.11l.126.121c.027.029.056.057.083.083l.075.074c.033.045.068.089.1.13.035.043.067.085.096.128l.116.165.078.148.083.155c.044.085.083.173.116.264.037.106.064.214.094.328l.075-.02-.076.02.003.007c.017.048.023.1.03.162.006.054.012.119.031.182h.001c.007.056.011.113.014.17v.175c.001.06-.003.12-.011.18-.02.1-.033.207-.049.303-.016.101-.036.197-.07.29-.015.037-.029.074-.041.11-.014.038-.026.074-.04.108a.5.5 0 0 1-.11.176l-.008.009-.006.01c-.274.534-.697.981-1.219 1.292l-.23.125-.004.003c-.03.018-.06.039-.086.056a.77.77 0 0 1-.075.046.212.212 0 0 1-.144.026l-.015-.003-.015.004-.63.133a.6.6 0 0 0-.077.015l-.075.017a.199.199 0 0 1-.115-.003l-.011-.004h-.012l-.551-.038h-.016l-.014.004a.084.084 0 0 1-.081-.014l-.014-.012-.017-.005-.42-.116-.003-.001-.004-.001h-.001a.241.241 0 0 0-.058-.012l-.042-.004-.01-.002v-.003l-.01-.029-.029-.014-.34-.164h-.005l-.095-.035c-.02-.009-.029-.017-.034-.03l-.008-.02-.017-.013-.31-.232-.012-.01-.015-.003-.042-.023a.096.096 0 0 1-.026-.038l-.005-.016-.012-.011-.255-.276-.02-.02-.027-.004-.019-.007a.063.063 0 0 1-.012-.02l-.02-.05a.28.28 0 0 0-.034-.066l-.15-.235-.006-.008-.005-.006-.037-.04a.34.34 0 0 1-.062-.145l-.001-.008-.003-.007-.128-.34-.01-.029-.028-.014-.014-.01a.041.041 0 0 1-.005-.019l.001-.047c0-.019 0-.044-.005-.07h.001l-.051-.29a.28.28 0 0 0-.014-.099l-.034-.087a.17.17 0 0 1-.015-.056.07.07 0 0 1 .016-.043l.012-.018.002-.022.05-.609.002-.02-.008-.016a.11.11 0 0 1 .001-.085l.027-.054.034-.065.005-.01a3.86 3.86 0 0 1 .473-.954l.006-.008.004-.01c.053-.148.158-.259.282-.37l.13-.113c.069-.06.142-.116.217-.174.323-.218.68-.383 1.06-.489l-.001-.001c.066-.016.134-.025.206-.036.07-.01.142-.023.215-.04v.002c.036-.006.072-.01.107-.013l.108-.002Z"></path><path fill="#fff" d="m50.441 8.903.127.106.199.31.041.19a.922.922 0 0 1-.297.718c-.186.195-.36.401-.54.602a66.49 66.49 0 0 0-1.744 1.909c-.393.429-.797.855-1.188 1.29-.236.26-.478.502-.8.658l-.36.111-.415.034-.324-.04-.433-.153-.121-.065-.304-.233a.306.306 0 0 0-.126-.118 1.38 1.38 0 0 0-.274-.26.283.283 0 0 0-.122-.114 1.498 1.498 0 0 0-.278-.264.27.27 0 0 0-.118-.11 1.738 1.738 0 0 0-.307-.287l-.067-.066a1.52 1.52 0 0 1-.211-.376c0-.101-.007-.202-.009-.304a.861.861 0 0 1 .216-.433.906.906 0 0 1 .42-.257c.068-.032.146 0 .214-.03l.009.008.01-.006.158.025c.123.04.241.093.351.16l.158.147c.073.091.16.173.257.24.031.052.075.093.128.122.08.096.172.182.274.255a.31.31 0 0 0 .123.118c.08.098.173.186.276.26.114.069.2.044.289-.053.342-.373.679-.751 1.023-1.12.219-.234.437-.468.671-.686.624-.68 1.25-1.356 1.87-2.038.142-.174.334-.302.552-.37h.37l.302.12Z"></path></g><path fill="#8F98A9" d="M16.61 52v-5.12l.56.56h-1.68V46.4h2.416V52H16.61Zm4.668.096c-.458 0-.869-.112-1.232-.336a2.338 2.338 0 0 1-.856-.992c-.208-.432-.312-.955-.312-1.568 0-.613.104-1.136.312-1.568.208-.432.494-.76.856-.984.363-.23.774-.344 1.232-.344.464 0 .875.115 1.232.344.363.224.648.552.856.984.208.432.312.955.312 1.568 0 .613-.104 1.136-.312 1.568a2.338 2.338 0 0 1-.856.992 2.27 2.27 0 0 1-1.232.336Zm0-1.096a.906.906 0 0 0 .568-.184c.166-.123.294-.317.384-.584.096-.267.144-.61.144-1.032 0-.421-.048-.765-.144-1.032-.09-.267-.218-.461-.384-.584a.906.906 0 0 0-.568-.184.928.928 0 0 0-.568.184c-.16.123-.288.317-.384.584-.09.267-.136.61-.136 1.032 0 .421.046.765.136 1.032.096.267.224.461.384.584a.928.928 0 0 0 .568.184Zm5.43 1.096c-.459 0-.87-.112-1.232-.336a2.338 2.338 0 0 1-.856-.992c-.208-.432-.312-.955-.312-1.568 0-.613.104-1.136.312-1.568.208-.432.493-.76.856-.984.363-.23.773-.344 1.232-.344.464 0 .875.115 1.232.344.363.224.648.552.856.984.208.432.312.955.312 1.568 0 .613-.104 1.136-.312 1.568a2.338 2.338 0 0 1-.856.992 2.27 2.27 0 0 1-1.232.336Zm0-1.096a.906.906 0 0 0 .568-.184c.165-.123.293-.317.384-.584.096-.267.144-.61.144-1.032 0-.421-.048-.765-.144-1.032-.09-.267-.219-.461-.384-.584a.906.906 0 0 0-.568-.184.928.928 0 0 0-.568.184c-.16.123-.288.317-.384.584-.09.267-.136.61-.136 1.032 0 .421.045.765.136 1.032.096.267.224.461.384.584a.928.928 0 0 0 .568.184Zm3.838 1 3.824-5.6h.952L31.498 52h-.952Zm.488-2.576a1.39 1.39 0 0 1-.72-.184 1.376 1.376 0 0 1-.496-.536 1.82 1.82 0 0 1-.176-.824c0-.315.058-.587.176-.816.122-.23.288-.408.496-.536.208-.128.448-.192.72-.192.272 0 .512.064.72.192.208.128.37.307.488.536.117.23.176.501.176.816 0 .315-.059.59-.176.824a1.32 1.32 0 0 1-.488.536 1.39 1.39 0 0 1-.72.184Zm0-.656a.502.502 0 0 0 .424-.216c.106-.15.16-.373.16-.672 0-.299-.054-.52-.16-.664a.497.497 0 0 0-.424-.224.51.51 0 0 0-.424.224c-.107.144-.16.365-.16.664 0 .293.053.515.16.664a.51.51 0 0 0 .424.224Zm3.8 3.296c-.267 0-.507-.061-.72-.184a1.32 1.32 0 0 1-.488-.536 1.82 1.82 0 0 1-.176-.824c0-.315.058-.587.176-.816.117-.23.28-.408.488-.536.213-.128.453-.192.72-.192.277 0 .52.064.728.192.208.128.37.307.488.536.117.23.176.501.176.816 0 .315-.059.59-.176.824a1.32 1.32 0 0 1-.488.536c-.208.123-.45.184-.728.184Zm0-.656a.502.502 0 0 0 .424-.216c.106-.15.16-.373.16-.672 0-.293-.054-.515-.16-.664a.497.497 0 0 0-.424-.224.51.51 0 0 0-.424.224c-.107.144-.16.365-.16.664 0 .299.053.523.16.672a.516.516 0 0 0 .424.216Zm6.377.688c-.448 0-.877-.059-1.288-.176-.41-.123-.741-.28-.992-.472l.44-.976a3.239 3.239 0 0 0 1.848.584c.256 0 .461-.024.616-.072a.75.75 0 0 0 .352-.216.477.477 0 0 0 .112-.312.411.411 0 0 0-.176-.352 1.34 1.34 0 0 0-.464-.216 6.986 6.986 0 0 0-.64-.16 9.056 9.056 0 0 1-.696-.192c-.23-.075-.44-.17-.632-.288a1.453 1.453 0 0 1-.472-.464c-.117-.192-.176-.437-.176-.736 0-.32.085-.61.256-.872.176-.267.437-.477.784-.632.352-.16.792-.24 1.32-.24.352 0 .699.043 1.04.128.341.08.643.203.904.368l-.4.984a3.272 3.272 0 0 0-.784-.328 2.786 2.786 0 0 0-.768-.112c-.25 0-.456.03-.616.088a.712.712 0 0 0-.344.232.512.512 0 0 0-.104.32c0 .144.059.261.176.352.117.085.272.155.464.208.192.053.403.107.632.16.235.053.467.115.696.184.235.07.448.163.64.28.192.117.347.272.464.464.123.192.184.435.184.728 0 .315-.088.603-.264.864-.176.261-.44.472-.792.632-.347.16-.787.24-1.32.24Zm4.454-3.44h2.696v1.008h-2.696v-1.008Zm.096 2.304h3.048V52h-4.336v-5.6h4.232v1.04H45.76v3.52Zm6.759 1.136c-.432 0-.835-.07-1.208-.208a2.853 2.853 0 0 1-1.6-1.528 2.94 2.94 0 0 1-.224-1.16c0-.421.074-.808.224-1.16.154-.352.368-.659.64-.92.277-.261.6-.461.968-.6.368-.144.77-.216 1.208-.216.485 0 .922.085 1.312.256.394.165.725.41.992.736l-.832.768a1.899 1.899 0 0 0-.64-.488 1.76 1.76 0 0 0-.768-.168c-.262 0-.502.043-.72.128a1.631 1.631 0 0 0-.568.368c-.16.16-.286.35-.376.568a1.986 1.986 0 0 0-.128.728c0 .267.042.51.128.728.09.219.216.408.376.568.16.16.35.283.568.368.218.085.458.128.72.128.277 0 .533-.053.768-.16.234-.112.448-.28.64-.504l.832.768a2.595 2.595 0 0 1-.992.744c-.39.17-.83.256-1.32.256Zm5.644 0c-.795 0-1.416-.221-1.864-.664-.448-.443-.672-1.075-.672-1.896V46.4h1.296v3.088c0 .533.11.917.328 1.152.218.235.525.352.92.352.394 0 .701-.117.92-.352.218-.235.328-.619.328-1.152V46.4h1.28v3.136c0 .821-.224 1.453-.672 1.896-.448.443-1.07.664-1.864.664ZM61.98 52v-5.6h2.424c.502 0 .934.083 1.296.248.363.16.643.392.84.696.198.304.296.667.296 1.088 0 .416-.098.776-.296 1.08a1.891 1.891 0 0 1-.84.688c-.362.16-.794.24-1.296.24H62.7l.576-.568V52H61.98Zm3.56 0-1.4-2.032h1.384L66.94 52h-1.4Zm-2.264-1.984-.576-.608h1.632c.4 0 .7-.085.896-.256.198-.176.296-.416.296-.72 0-.31-.098-.55-.296-.72-.197-.17-.496-.256-.896-.256H62.7l.576-.616v3.176Zm5.78-1.36h2.695v1.008h-2.696v-1.008Zm.095 2.304H72.2V52h-4.336v-5.6h4.232v1.04h-2.944v3.52ZM24.137 64v-5.6h2.424c.501 0 .933.083 1.296.248.362.16.642.392.84.696.197.304.296.667.296 1.088 0 .416-.099.776-.296 1.08a1.924 1.924 0 0 1-.84.704c-.363.16-.795.24-1.296.24h-1.704l.576-.584V64h-1.296Zm1.296-1.984-.576-.616h1.632c.4 0 .698-.085.896-.256.197-.17.296-.408.296-.712 0-.31-.099-.55-.296-.72-.198-.17-.496-.256-.896-.256h-1.632l.576-.616v3.176ZM28.9 64l2.496-5.6h1.28L35.18 64h-1.36l-2.048-4.944h.512L30.229 64H28.9Zm1.248-1.2.344-.984h2.88l.352.984h-3.576Zm6.66 1.2v-2.288l.297.784-2.464-4.096h1.376l1.888 3.144h-.792L39.01 58.4h1.272l-2.464 4.096.288-.784V64H36.81Zm3.968 0v-5.6h1.072l2.384 3.952h-.568L46.01 58.4h1.064l.016 5.6h-1.216l-.008-3.736h.224l-1.872 3.144h-.584l-1.912-3.144h.272V64h-1.216Zm8.833-3.344h2.696v1.008H49.61v-1.008Zm.096 2.304h3.048V64h-4.336v-5.6h4.232v1.04h-2.944v3.52Zm4.08 1.04v-5.6h1.071l3.304 4.032h-.52V58.4h1.28V64h-1.064l-3.312-4.032h.52V64h-1.28Zm7.62 0v-4.544h-1.792V58.4h4.88v1.056h-1.792V64h-1.296Z"></path><defs><clipPath id="icon-secure-payment-v2_svg__a"><path fill="#fff" d="M27 3h34v34H27z"></path></clipPath></defs></svg>