<svg width="16" height="16" viewBox="0 0 16 16" fill="none" xmlns="http://www.w3.org/2000/svg">
<path d="M15.8586 15.0621L12.607 11.8345C15.0319 9.02069 14.8941 4.77241 12.2212 2.09655C10.8434 0.689655 8.9971 0 7.17839 0C5.35968 0 3.51342 0.689655 2.10805 2.09655C-0.702684 4.91035 -0.702684 9.43448 2.10805 12.2483C3.48586 13.6276 5.33213 14.3448 7.17839 14.3448C8.83177 14.3448 10.5127 13.7655 11.8354 12.6069L15.087 15.8621C15.1697 15.9448 15.3075 16 15.4453 16C15.583 16 15.7208 15.9448 15.831 15.8345C16.0515 15.6414 16.0515 15.2828 15.8586 15.0621ZM2.87962 11.4483C1.72226 10.3172 1.11603 8.77241 1.11603 7.17241C1.11603 5.57241 1.74982 4.02759 2.87962 2.86897C4.03699 1.71035 5.55258 1.10345 7.17839 1.10345C8.80421 1.10345 10.3198 1.73793 11.4772 2.86897C12.607 4.02759 13.2408 5.54483 13.2408 7.17241C13.2408 8.8 12.607 10.3172 11.4772 11.4759C10.3198 12.6069 8.77666 13.2414 7.17839 13.2414C5.58013 13.2414 4.03699 12.6069 2.87962 11.4483Z" fill="#777777"/>
</svg>
