<?xml version="1.0" encoding="utf-8"?><!-- Uploaded to: SVG Repo, www.svgrepo.com, Generator: SVG Repo Mixer Tools -->
<svg fill="#000000" width="800px" height="800px" viewBox="0 -0.18 28.358 28.358" id="_18_-_Share" data-name="18 - Share" xmlns="http://www.w3.org/2000/svg">
  <path id="Path_249" data-name="Path 249" d="M8.388,9.3a6.7,6.7,0,1,0,6.7,6.7A6.7,6.7,0,0,0,8.388,9.3Zm0,2a4.7,4.7,0,1,1-4.7,4.7A4.7,4.7,0,0,1,8.388,11.3Z" transform="translate(-1.687 -2)" fill-rule="evenodd"/>
  <path id="Path_250" data-name="Path 250" d="M25.4,20.7a4.649,4.649,0,1,0,4.65,4.65A4.651,4.651,0,0,0,25.4,20.7Zm0,2a2.649,2.649,0,1,1-2.649,2.65A2.651,2.651,0,0,1,25.4,22.7Z" transform="translate(-1.687 -2)" fill-rule="evenodd"/>
  <path id="Path_251" data-name="Path 251" d="M13.251,18.9l8.363,5.576a1,1,0,0,0,1.11-1.664l-8.363-5.576a1,1,0,0,0-1.11,1.664Z" transform="translate(-1.687 -2)" fill-rule="evenodd"/>
  <path id="Path_252" data-name="Path 252" d="M25.4,2a4.649,4.649,0,1,0,4.65,4.649A4.651,4.651,0,0,0,25.4,2Zm0,2a2.649,2.649,0,1,1-2.649,2.649A2.65,2.65,0,0,1,25.4,4Z" transform="translate(-1.687 -2)" fill-rule="evenodd"/>
  <path id="Path_253" data-name="Path 253" d="M14.284,14.872l8.428-5.456a1,1,0,0,0-1.087-1.679L13.2,13.194a1,1,0,1,0,1.087,1.678Z" transform="translate(-1.687 -2)" fill-rule="evenodd"/>
</svg>